<svg width="176" height="54" viewBox="0 0 176 54" fill="none" xmlns="http://www.w3.org/2000/svg">
<path d="M63.6309 17.5873H67.0218L69.8561 25.843H70.0121L72.838 17.5873H76.2204V29.7518H73.6055V22.0044H73.4368L70.7713 29.7518H69.0758L66.4145 22.0044H66.2542V29.7518H63.6351V17.5873H63.6309Z" fill="#592800"/>
<path d="M82.4713 17.5873H86.1153L90.0504 29.7518H86.9252L86.2039 27.0788H82.3828L81.6616 29.7518H78.5364L82.4713 17.5873ZM82.9817 24.8528H85.6009L84.3693 20.2648H84.2132L82.9817 24.8528Z" fill="#592800"/>
<path d="M92.3406 17.5873H94.7193L99.6033 24.4321H99.7509V17.5873H102.577V29.7518H100.215L95.3139 22.837H95.1663V29.7518H92.3406V17.5873Z" fill="#592800"/>
<path d="M105.667 17.5873H110.585C114.073 17.5873 116.064 19.7477 116.064 23.5381V23.5557C116.064 27.5432 114.107 29.7518 110.585 29.7518H105.667V17.5873ZM110.05 27.2672C111.981 27.2672 113.027 26.0184 113.027 23.617V23.5994C113.027 21.3383 111.922 20.0763 110.05 20.0763H108.645V27.2672H110.05Z" fill="#592800"/>
<path d="M118.607 17.5873H121.585V29.7518H118.607V17.5873Z" fill="#592800"/>
<path d="M124.681 17.5873H127.659V27.2672H132.631V29.7561H124.677V17.5873H124.681Z" fill="#592800"/>
<path d="M135.136 17.5873H138.114V29.7518H135.136V17.5873Z" fill="#592800"/>
<path d="M141.205 17.5873H143.584L148.467 24.4321H148.614V17.5873H151.441V29.7518H149.079L144.178 22.837H144.03V29.7518H141.205V17.5873Z" fill="#592800"/>
<path d="M154.533 17.5873H157.511V22.8151H157.666L161.564 17.5873H164.76L160.711 22.9597L164.997 29.7561H161.5L158.548 24.9579L157.519 26.3163V29.7561H154.542V17.5873H154.533Z" fill="#592800"/>
<path d="M166.189 26.439L166.181 26.2857H169.024L169.032 26.3601C169.112 27.1095 169.917 27.6484 171.119 27.6484C172.28 27.6484 173.043 27.1007 173.043 26.3251V26.3163C173.043 25.6327 172.523 25.3129 171.153 25.0368L169.943 24.7914C167.467 24.2919 166.396 23.0781 166.396 21.1807V21.1719C166.404 18.7837 168.352 17.25 171.048 17.25C173.983 17.25 175.582 18.7925 175.763 20.944L175.771 21.0449H173.014L172.996 20.944C172.874 20.186 172.144 19.6776 171.065 19.6776C169.993 19.6776 169.361 20.1728 169.361 20.9001V20.9089C169.361 21.6013 169.897 21.9781 171.161 22.2411L172.372 22.4865C174.864 22.9903 175.999 24.0289 175.999 25.9921V26.0008C175.999 28.4898 174.156 30.0716 171.073 30.0716C168.146 30.0804 166.312 28.7002 166.189 26.439Z" fill="#592800"/>
<path d="M27.0769 54C42.0311 54 54.1538 41.9117 54.1538 27C54.1538 12.0883 42.0311 0 27.0769 0C12.1228 0 0 12.0883 0 27C0 41.9117 12.1228 54 27.0769 54Z" fill="#FFEFBB"/>
<path d="M45.4276 20.4682C45.3554 20.4884 45.2788 20.4366 45.254 20.3512C44.9812 19.4496 44.652 18.5794 44.2596 17.7564C43.8718 16.9312 43.396 16.1757 42.8683 15.4831C42.8187 15.4179 42.8255 15.328 42.8841 15.2808C42.9428 15.2337 43.0306 15.2516 43.0826 15.319C43.6237 16.0273 44.1086 16.8007 44.5032 17.6395C44.9023 18.476 45.236 19.3595 45.5133 20.2747C45.5359 20.3602 45.4976 20.4479 45.4276 20.4682Z" fill="#F29400"/>
<path d="M45.4024 17.3472C45.3349 17.3787 45.2469 17.3382 45.2063 17.2572C45.0372 16.9267 44.877 16.5895 44.6831 16.2747C44.5885 16.1173 44.5028 15.9509 44.399 15.798L44.0923 15.3393C43.9954 15.1818 43.8805 15.0402 43.77 14.8963L43.4363 14.4624L43.0732 14.0577L42.8928 13.853C42.8296 13.7878 42.762 13.7271 42.6988 13.6642C42.6357 13.6034 42.6245 13.5091 42.6763 13.455C42.7282 13.4011 42.8228 13.4101 42.8882 13.473C42.9536 13.5382 43.0236 13.599 43.0867 13.6665L43.2716 13.8756L43.6437 14.2915L43.9863 14.7345C44.1014 14.8807 44.2163 15.0267 44.3156 15.1864L44.629 15.6541C44.735 15.8092 44.8207 15.9778 44.9176 16.1398C45.1161 16.4591 45.2807 16.8008 45.4521 17.1381C45.4904 17.2213 45.4701 17.3158 45.4024 17.3472Z" fill="#FFB400"/>
<path d="M49.6326 19.2517C49.7048 19.2314 49.7386 19.1303 49.7071 19.0246C49.3734 17.9183 48.9607 16.8188 48.4465 15.744C47.9392 14.6692 47.2989 13.6304 46.5525 12.6568C46.4825 12.5646 46.3766 12.5287 46.318 12.5736C46.2594 12.6208 46.2683 12.731 46.3383 12.821C47.0711 13.7788 47.7024 14.8019 48.2031 15.8609C48.7082 16.92 49.1163 18.006 49.4478 19.101C49.4794 19.2067 49.5605 19.2742 49.6326 19.2517Z" fill="#F29400"/>
<path d="M47.4271 16.396C47.4948 16.3646 47.5105 16.2612 47.4632 16.1668C47.2692 15.7822 47.0798 15.3932 46.8521 15.0223C46.7393 14.8356 46.6401 14.6445 46.5184 14.4624L46.1553 13.9182C46.038 13.7338 45.9028 13.5608 45.7675 13.3876L45.3638 12.8682L44.9242 12.3735L44.7031 12.1262C44.6265 12.0475 44.5453 11.971 44.4663 11.8946C44.3876 11.8181 44.2815 11.8001 44.2297 11.8541C44.1778 11.9081 44.198 12.0115 44.2748 12.0857C44.3514 12.1622 44.4326 12.2341 44.507 12.3128L44.7234 12.5534L45.1541 13.0368L45.551 13.5473C45.684 13.7182 45.8171 13.8868 45.9322 14.0689L46.2907 14.604C46.4102 14.7817 46.5093 14.9706 46.6199 15.155C46.843 15.5192 47.0303 15.9014 47.222 16.2814C47.267 16.3759 47.3595 16.4276 47.4271 16.396Z" fill="#FFB400"/>
<path d="M46.4152 16.8706C46.3475 16.902 46.2573 16.8571 46.2122 16.7693C45.7657 15.8273 45.2133 14.9391 44.5774 14.1162L44.3384 13.8081C44.2573 13.7068 44.167 13.6125 44.0813 13.5158L43.822 13.2257L43.6912 13.0795C43.6461 13.0323 43.5987 12.9896 43.5514 12.9424L42.9899 12.4027L42.3879 11.9081C42.3112 11.8451 42.2865 11.7484 42.3315 11.6877C42.3766 11.6293 42.4759 11.6315 42.5525 11.6967L43.1681 12.2026L43.7431 12.7558C43.7905 12.803 43.84 12.8479 43.8851 12.8952L44.0182 13.0436L44.2842 13.3404C44.3722 13.4393 44.4647 13.5361 44.5459 13.6395L44.7893 13.9542C45.4388 14.7929 46.0002 15.699 46.4535 16.6547C46.5009 16.7423 46.4829 16.8391 46.4152 16.8706Z" fill="#F29400"/>
<path d="M48.1428 21.5721C48.1022 21.3585 48.0503 21.1472 47.9985 20.9358C47.9466 20.7244 47.8994 20.5131 47.8406 20.304C47.7121 19.8588 47.6873 19.4045 47.7144 18.9841C47.7324 18.7727 47.773 18.5659 47.8317 18.3726C47.8858 18.1791 47.9601 17.997 48.0571 17.8307C48.2849 17.4395 48.5126 17.0369 48.7111 16.6232C48.9118 16.2095 49.1192 15.78 49.2906 15.3416C49.4529 15.6676 49.5883 16.0004 49.7371 16.3308C49.8835 16.6614 49.9986 16.9964 50.1294 17.3292C50.2467 17.6216 50.2985 17.9183 50.3347 18.2061C50.3504 18.35 50.3594 18.4916 50.3594 18.6288C50.3548 18.766 50.3413 18.901 50.3211 19.0291C50.2805 19.2876 50.2083 19.526 50.1068 19.7351C50.0031 19.9442 49.8655 20.1241 49.7055 20.2658C49.1913 20.7222 48.6794 21.1561 48.1428 21.5721Z" fill="#FFB400"/>
<path d="M48.8753 18.4107C48.4153 19.1033 48.2416 19.8879 48.1741 20.5041C48.1357 20.8121 48.1311 21.0797 48.1357 21.2686C48.1334 21.4597 48.1425 21.5743 48.1425 21.5743C48.6792 21.1561 49.1909 20.7244 49.7074 20.2679C49.8674 20.1263 50.005 19.9464 50.1087 19.7374C50.2102 19.5283 50.2824 19.2899 50.323 19.0313C50.3432 18.9031 50.3567 18.7682 50.3613 18.6311C50.3613 18.4939 50.3523 18.3523 50.3364 18.2084C50.3004 17.9206 50.2486 17.6237 50.1313 17.3314C50.0005 16.9986 49.8854 16.6636 49.739 16.3331C49.59 16.0026 49.4571 15.6698 49.2925 15.3438C49.2925 15.3438 49.3015 15.3685 49.3149 15.4158C49.3308 15.4629 49.3488 15.5327 49.3646 15.6226C49.3985 15.8002 49.4368 16.0543 49.4459 16.351C49.4616 16.6479 49.4255 16.9919 49.3398 17.3449C49.2969 17.5226 49.2406 17.7024 49.1662 17.8801C49.0918 18.0577 48.9926 18.2375 48.8753 18.4107Z" fill="#F29400"/>
<path d="M47.7956 21.6463C47.755 21.4349 47.7053 21.2281 47.6535 21.0189C47.6016 20.8121 47.5542 20.603 47.4979 20.3962C47.3716 19.9577 47.1687 19.5574 46.8846 19.2561C46.7448 19.1033 46.596 18.9729 46.4337 18.8672C46.2667 18.7638 46.0932 18.6872 45.915 18.6401C45.4933 18.5277 45.0829 18.4264 44.659 18.35C44.2373 18.2736 43.8314 18.2016 43.4143 18.1611C43.5271 18.3815 43.6194 18.6199 43.7233 18.8492C43.827 19.0785 43.9081 19.3259 44.0028 19.5619C44.0885 19.7688 44.1764 19.978 44.3027 20.1555C44.3636 20.2455 44.4312 20.3331 44.5033 20.4141C44.571 20.4973 44.6455 20.576 44.7244 20.6503C44.88 20.7963 45.0558 20.92 45.2452 21.0189C45.4325 21.1179 45.6264 21.1899 45.8316 21.2259C46.4832 21.3473 47.1483 21.4844 47.7956 21.6463Z" fill="#FFB400"/>
<path d="M45.6173 19.5034C46.3886 19.6991 46.9477 20.2365 47.2994 20.7244C47.4731 20.9695 47.5994 21.1989 47.6828 21.3675C47.7618 21.5384 47.7956 21.644 47.7956 21.644C47.1483 21.4821 46.4832 21.345 45.8316 21.2259C45.6264 21.1899 45.4325 21.1156 45.2452 21.0189C45.0581 20.9223 44.8823 20.7986 44.7244 20.6503C44.6455 20.576 44.5733 20.4973 44.5033 20.4141C44.4312 20.3331 44.3636 20.2455 44.3027 20.1555C44.1764 19.9757 44.0885 19.7666 44.0028 19.5619C43.9081 19.3259 43.827 19.0785 43.7233 18.8492C43.6172 18.622 43.5248 18.3815 43.4143 18.1611C43.4143 18.1611 43.4255 18.1746 43.4481 18.2016C43.4706 18.2263 43.5045 18.2645 43.5474 18.3141C43.6329 18.4107 43.766 18.5412 43.9487 18.6805C44.1359 18.8176 44.3524 18.9796 44.6297 19.1235C44.7672 19.1955 44.9206 19.2652 45.0874 19.3281C45.252 19.3933 45.4257 19.454 45.6173 19.5034Z" fill="#F29400"/>
<path d="M48.7111 25.5138L48.6548 24.8662L48.5826 24.2209C48.4721 23.308 48.6931 22.4108 49.1847 21.8263C49.4733 21.4844 49.7641 21.1314 50.0438 20.7693C50.3189 20.4074 50.5917 20.0341 50.86 19.6497L51.1036 20.657L51.311 21.6643C51.5319 22.8493 51.1508 23.9668 50.4361 24.4322C49.8701 24.81 49.2884 25.1697 48.7111 25.5138Z" fill="#FFB400"/>
<path d="M49.8911 22.5142C49.6092 22.8156 49.3949 23.1528 49.2326 23.4879C49.1515 23.6565 49.0861 23.8229 49.0297 23.9871C48.971 24.1511 48.9237 24.3085 48.8832 24.4592C48.8087 24.7582 48.7659 25.0213 48.7388 25.2102C48.7139 25.3991 48.7095 25.5138 48.7095 25.5138C49.2868 25.1697 49.8708 24.8101 50.4345 24.4345C51.1492 23.969 51.5303 22.8516 51.3094 21.6666L51.102 20.6592L50.8584 19.652C50.8584 19.652 50.9035 20.0635 50.8155 20.6301C50.7141 21.1966 50.4684 21.9139 49.8911 22.5142Z" fill="#F29400"/>
<path d="M48.3567 25.5429L48.3004 24.9021L48.2282 24.2635C48.1177 23.3551 47.608 22.5773 46.9338 22.2669C46.5347 22.0825 46.1424 21.9071 45.7432 21.743C45.342 21.5811 44.9405 21.4327 44.5459 21.2933L44.7353 22.0713L44.8976 22.8649C45.0713 23.7959 45.6711 24.5896 46.4648 24.8594C47.103 25.0708 47.7254 25.3001 48.3567 25.5429Z" fill="#FFB400"/>
<path d="M46.501 23.0831C46.8684 23.245 47.1684 23.4811 47.4119 23.7442C47.5337 23.8746 47.6465 24.0118 47.7411 24.1511C47.8336 24.2906 47.917 24.4277 47.987 24.5626C48.129 24.8302 48.2236 25.0753 48.2778 25.2551C48.3342 25.4351 48.3567 25.5453 48.3567 25.5453C47.7254 25.3024 47.103 25.073 46.4648 24.8616C45.6711 24.5919 45.0713 23.7981 44.8976 22.8673L44.7353 22.0735L44.5459 21.2956C44.5459 21.2956 44.6699 21.5834 44.9856 21.9453C45.2878 22.3074 45.7771 22.7548 46.501 23.0831Z" fill="#F29400"/>
<path d="M48.8257 29.4913C48.8369 29.0574 48.8346 28.6257 48.8346 28.1917C48.8257 27.2721 49.1459 26.4086 49.7118 25.8937C50.3748 25.2912 51.0287 24.6593 51.6578 23.9893C51.6961 24.3243 51.7344 24.6593 51.7615 24.992C51.793 25.3271 51.8201 25.6599 51.8381 25.9927C51.9126 27.1663 51.4187 28.2187 50.6543 28.601C50.0501 28.9112 49.4367 29.2081 48.8257 29.4913Z" fill="#FFB400"/>
<path d="M50.3297 26.6537C49.6915 27.1777 49.3285 27.8859 49.1074 28.4615C48.9992 28.7493 48.9294 29.0057 48.8843 29.1923C48.8391 29.3767 48.8257 29.4891 48.8257 29.4891C49.4367 29.2058 50.0501 28.909 50.6543 28.5987C51.4187 28.2142 51.9103 27.1641 51.8381 25.9905C51.8201 25.6577 51.793 25.3249 51.7615 24.9898C51.7367 24.6571 51.6961 24.322 51.6578 23.9871C51.6578 23.9871 51.6555 24.0859 51.633 24.2546C51.6104 24.4232 51.5698 24.6571 51.4796 24.9246C51.3105 25.4642 50.9677 26.1321 50.3297 26.6537Z" fill="#F29400"/>
<path d="M48.4728 29.4824C48.4817 29.0529 48.4817 28.6233 48.4817 28.1939C48.4728 27.2766 48.0557 26.4469 47.4266 26.0489C46.6846 25.579 45.9383 25.1382 45.1807 24.7379C45.2122 25.0122 45.2437 25.2866 45.2664 25.5655C45.2911 25.8419 45.3136 26.1186 45.3294 26.3996C45.3904 27.3732 45.9089 28.2456 46.6643 28.6009C47.2709 28.882 47.8729 29.1766 48.4728 29.4824Z" fill="#FFB400"/>
<path d="M46.8963 26.8202C47.5794 27.2361 47.9876 27.9039 48.2064 28.4659C48.3169 28.747 48.3867 29.0011 48.4229 29.1855C48.4612 29.3699 48.4724 29.4824 48.4724 29.4824C47.8704 29.1766 47.2706 28.882 46.6618 28.6009C45.9063 28.2456 45.3877 27.3732 45.3268 26.3996C45.3111 26.1209 45.2885 25.8419 45.2637 25.5655C45.2434 25.2866 45.2095 25.0122 45.178 24.7379C45.178 24.7379 45.2006 24.8166 45.2569 24.947C45.3132 25.0774 45.4035 25.2574 45.5297 25.4665C45.7913 25.8824 46.213 26.4019 46.8963 26.8202Z" fill="#F29400"/>
<path d="M48.5376 33.4352C48.5984 32.999 48.6435 32.5717 48.6819 32.1378C48.7653 31.2205 49.1712 30.3929 49.7823 29.9388C50.5061 29.4081 51.2163 28.8506 51.9176 28.2614C51.9199 28.9247 51.9154 29.5858 51.8884 30.2469C51.8477 31.4115 51.248 32.4166 50.4519 32.7291C49.8183 32.981 49.1801 33.2193 48.5376 33.4352Z" fill="#FFB400"/>
<path d="M50.3235 30.7572C49.638 31.2136 49.205 31.8838 48.9299 32.4369C48.7924 32.7135 48.6955 32.963 48.6322 33.1429C48.5691 33.3227 48.5376 33.4352 48.5376 33.4352C49.1801 33.2193 49.8183 32.9811 50.4542 32.7314C51.2502 32.4211 51.8522 31.4138 51.8905 30.2491C51.9176 29.588 51.9222 28.9247 51.9199 28.2636C51.9199 28.2636 51.9064 28.3603 51.8658 28.5223C51.823 28.6841 51.7598 28.9089 51.6425 29.1653C51.4148 29.6757 51.0134 30.3008 50.3235 30.7572Z" fill="#F29400"/>
<path d="M48.1879 33.3835C48.2465 32.9653 48.2916 32.5335 48.3299 32.1086C48.4135 31.1957 48.0796 30.3301 47.4934 29.8692C46.8057 29.325 46.1044 28.8055 45.3963 28.3176C45.3986 28.8798 45.3941 29.4442 45.3715 30.0085C45.3377 30.9956 45.7594 31.904 46.481 32.329C47.056 32.664 47.6265 33.0125 48.1879 33.3835Z" fill="#FFB400"/>
<path d="M46.889 30.5841C47.5296 31.0676 47.87 31.7692 48.0324 32.3514C48.1135 32.6415 48.1541 32.9024 48.1721 33.0868C48.1902 33.2733 48.1879 33.3835 48.1879 33.3835C47.6287 33.0148 47.0583 32.6662 46.481 32.329C45.7594 31.904 45.3377 30.9956 45.3715 30.0085C45.3941 29.4442 45.3986 28.8798 45.3963 28.3176C45.3963 28.3176 45.4098 28.4008 45.4505 28.5379C45.4911 28.6751 45.5632 28.8686 45.6669 29.0912C45.8811 29.5341 46.2531 30.1007 46.889 30.5841Z" fill="#F29400"/>
<path d="M47.0029 15.2156C46.8586 14.9862 46.6984 14.7682 46.527 14.5747C46.3422 14.3859 46.1482 14.2173 45.9476 14.0734C45.7514 13.9273 45.5326 13.8148 45.3161 13.7317C45.0997 13.6462 44.8833 13.5899 44.6736 13.5629C44.545 13.5427 44.4053 13.5361 44.2722 13.5247C44.2631 13.6574 44.2587 13.7811 44.2384 13.9159C44.1391 14.7704 44.3511 15.6383 44.7547 16.468C44.7885 16.5332 44.8246 16.5984 44.8584 16.6659L44.9509 16.8706L45.1381 17.2774C45.2103 17.4237 45.2958 17.5608 45.4064 17.671C45.5146 17.7811 45.6454 17.8643 45.783 17.9138L46.1076 18.0307L46.4233 18.1589C46.6353 18.2466 46.8473 18.3388 47.0615 18.4332C47.1585 18.2241 47.2554 18.0105 47.3523 17.7946L47.4945 17.4663L47.623 17.1358C47.6771 16.9919 47.6951 16.8256 47.6793 16.6501C47.6636 16.4747 47.6139 16.2926 47.5193 16.1263L47.2666 15.6676L47.1405 15.4382C47.0954 15.3641 47.048 15.2921 47.0029 15.2156Z" fill="#FFB400"/>
<path d="M47.0023 15.2156C46.8535 14.9795 46.691 14.757 46.5107 14.5591C46.3213 14.3656 46.1184 14.1949 45.9131 14.051C46.0214 14.1791 46.1274 14.3139 46.2265 14.4557L46.3776 14.6693L46.5152 14.8896L46.7881 15.3304C46.8918 15.4899 46.9572 15.6653 46.991 15.8317C47.0271 15.9981 47.0315 16.1578 47.0067 16.2926C46.9324 16.7087 46.8129 17.1291 46.7069 17.5271C46.3304 17.3338 45.9763 17.1426 45.5908 16.9852C45.4689 16.9335 45.3517 16.8459 45.2457 16.7356C45.142 16.6233 45.0495 16.4905 44.9661 16.3466L44.7496 15.9464L44.6414 15.7463L44.5219 15.5551C44.4407 15.427 44.3708 15.2966 44.3054 15.1639C44.346 15.3888 44.4068 15.6068 44.4881 15.8205C44.5602 16.0409 44.6481 16.2589 44.7609 16.468C44.7947 16.5332 44.8308 16.5984 44.8646 16.6659L44.957 16.8706L45.1443 17.2775C45.2164 17.4237 45.3021 17.5608 45.4126 17.671C45.5208 17.7811 45.6515 17.8643 45.7891 17.9139L46.1139 18.0308L46.4295 18.1589C46.6415 18.2466 46.8535 18.3388 47.0677 18.4332C47.1646 18.2241 47.2615 18.0105 47.3585 17.7946L47.5006 17.4663L47.6291 17.1358C47.6833 16.9919 47.7013 16.8256 47.6856 16.6501C47.6697 16.4748 47.6202 16.2926 47.5254 16.1263L47.2729 15.6676L47.1466 15.4382C47.0947 15.3641 47.0474 15.2922 47.0023 15.2156Z" fill="#F29400"/>
<path d="M10.4052 16.6749C10.4729 16.7087 10.5608 16.6703 10.6014 16.5916C11.0456 15.7463 11.5417 14.9435 12.0896 14.2016C12.6353 13.455 13.2532 12.794 13.9116 12.2049C13.9747 12.1509 13.9838 12.0587 13.9364 12.0025C13.8868 11.9463 13.7965 11.9463 13.7311 12.0025C13.057 12.6051 12.4256 13.2796 11.8709 14.0396C11.3139 14.7952 10.8111 15.6114 10.3601 16.468C10.3173 16.5467 10.3376 16.6412 10.4052 16.6749Z" fill="#F29400"/>
<path d="M11.03 13.5743C11.0909 13.6192 11.1856 13.5945 11.2442 13.5226C11.4765 13.2257 11.702 12.9222 11.9545 12.6456C12.0808 12.5062 12.1958 12.3578 12.3288 12.2274L12.7212 11.8316C12.8475 11.6945 12.9895 11.5753 13.1271 11.4539L13.5442 11.0874L13.984 10.7524L14.2026 10.5837C14.2771 10.5298 14.356 10.4825 14.4326 10.4331C14.5094 10.3836 14.5363 10.2937 14.4959 10.2307C14.4552 10.1678 14.3583 10.1565 14.2794 10.2082C14.2005 10.2599 14.1215 10.3094 14.0448 10.3634L13.8216 10.5342L13.3729 10.876L12.9467 11.2515C12.8046 11.3752 12.6603 11.4989 12.5318 11.6383L12.1304 12.043C11.9951 12.1779 11.8779 12.3286 11.7493 12.4702C11.4923 12.7513 11.2623 13.0593 11.0255 13.3629C10.9669 13.4326 10.9691 13.5293 11.03 13.5743Z" fill="#FFB400"/>
<path d="M6.45517 14.6625C6.38752 14.6287 6.374 14.5208 6.4236 14.4219C6.9693 13.3831 7.59165 12.369 8.30645 11.3999C9.01901 10.4285 9.85558 9.51788 10.7846 8.69043C10.8725 8.61173 10.9853 8.596 11.0326 8.6522C11.0822 8.70842 11.0507 8.81635 10.965 8.8928C10.0517 9.70675 9.22646 10.6017 8.52518 11.5618C7.81939 12.5174 7.2038 13.5202 6.66489 14.5478C6.61753 14.6445 6.52283 14.6962 6.45517 14.6625Z" fill="#F29400"/>
<path d="M9.19996 12.2409C9.13908 12.1959 9.14359 12.0925 9.20898 12.007C9.47731 11.6608 9.73889 11.3122 10.0365 10.9862C10.1831 10.8221 10.3206 10.6512 10.4762 10.4938L10.943 10.0216C11.0941 9.86195 11.2632 9.7158 11.4301 9.56739L11.9307 9.1267L12.4628 8.71971L12.7289 8.51735C12.8191 8.45214 12.916 8.39367 13.0085 8.33072C13.1009 8.27001 13.2092 8.27226 13.252 8.33522C13.2926 8.39817 13.252 8.49711 13.1618 8.55557C13.0694 8.61628 12.9769 8.67474 12.8867 8.7377L12.6274 8.93782L12.1043 9.33805L11.6127 9.76976C11.4481 9.91367 11.2835 10.0576 11.1347 10.215L10.6769 10.6782C10.5236 10.8333 10.3883 11.0019 10.244 11.1638C9.95085 11.4854 9.69378 11.8294 9.42995 12.1689C9.36232 12.2521 9.26084 12.2836 9.19996 12.2409Z" fill="#FFB400"/>
<path d="M10.115 12.9064C10.1759 12.9513 10.2751 12.9221 10.336 12.8434C10.9606 11.9912 11.6822 11.2132 12.4736 10.5162L12.769 10.2554C12.8682 10.1699 12.9765 10.0935 13.0802 10.0125L13.3936 9.77196L13.5514 9.65278C13.6056 9.61456 13.6619 9.58083 13.7161 9.54486L14.379 9.11539L15.0736 8.73765C15.1614 8.69042 15.2043 8.59824 15.1705 8.52853C15.1366 8.46108 15.0374 8.44534 14.9472 8.49481L14.237 8.8793L13.5605 9.32001C13.5041 9.35823 13.4477 9.39196 13.3914 9.43018L13.2313 9.5516L12.9111 9.79669C12.8051 9.87988 12.6946 9.95633 12.5931 10.044L12.291 10.3116C11.4837 11.0221 10.7509 11.8158 10.115 12.6793C10.0541 12.7625 10.0541 12.8637 10.115 12.9064Z" fill="#F29400"/>
<path d="M7.49362 17.255C7.57479 17.0503 7.66725 16.8503 7.7597 16.6501C7.85216 16.45 7.94009 16.2476 8.03705 16.052C8.24901 15.6338 8.36176 15.1864 8.41588 14.7614C8.43843 14.5477 8.43843 14.3341 8.41588 14.1296C8.4001 13.9273 8.35951 13.7316 8.29637 13.5472C8.14529 13.1155 7.99422 12.6703 7.87696 12.2206C7.75744 11.7709 7.63343 11.3032 7.54548 10.8333C7.32 11.1278 7.12381 11.4314 6.91186 11.7326C6.70215 12.034 6.52401 12.3442 6.33009 12.65C6.15871 12.9176 6.04822 13.2054 5.95803 13.482C5.91518 13.6213 5.87911 13.7608 5.85205 13.898C5.8295 14.0351 5.81823 14.1723 5.81371 14.305C5.80469 14.5703 5.83176 14.8199 5.89038 15.0469C5.95352 15.274 6.05499 15.481 6.18804 15.6517C6.61421 16.2071 7.03813 16.7355 7.49362 17.255Z" fill="#FFB400"/>
<path d="M7.37195 13.9676C7.69666 14.7456 7.71695 15.5574 7.66733 16.1847C7.64479 16.4996 7.59969 16.7648 7.55911 16.9537C7.52303 17.1449 7.49372 17.255 7.49372 17.255C7.03821 16.7378 6.61204 16.2072 6.18812 15.6564C6.05734 15.4831 5.95361 15.2786 5.89048 15.0514C5.8296 14.8243 5.80479 14.5726 5.81381 14.3095C5.81832 14.1768 5.83184 14.0419 5.85214 13.9024C5.8792 13.7653 5.91302 13.626 5.95812 13.4865C6.05057 13.2077 6.15881 12.9221 6.33018 12.6546C6.5241 12.3488 6.70224 12.0385 6.91194 11.7372C7.12391 11.4381 7.32008 11.1323 7.54557 10.8378C7.54557 10.8378 7.53204 10.8625 7.50724 10.9052C7.48244 10.9502 7.45087 11.0154 7.41705 11.1008C7.3494 11.2717 7.26371 11.5168 7.19606 11.8091C7.12391 12.1014 7.09234 12.45 7.11037 12.8187C7.11939 13.0031 7.14195 13.192 7.18027 13.3853C7.22538 13.5764 7.28851 13.7743 7.37195 13.9676Z" fill="#F29400"/>
<path d="M7.82422 17.3943C7.9054 17.192 7.99559 16.9942 8.08578 16.7986C8.17824 16.6007 8.26392 16.4028 8.36088 16.2072C8.57059 15.7957 8.84794 15.4359 9.19068 15.1909C9.35754 15.0649 9.53344 14.9638 9.71382 14.8896C9.89873 14.8199 10.0881 14.7771 10.2753 14.7636C10.715 14.7321 11.1434 14.7097 11.5809 14.7142C12.0161 14.7186 12.4332 14.7254 12.8549 14.7636C12.7016 14.9615 12.564 15.1818 12.4152 15.3888C12.2686 15.5979 12.1401 15.8273 11.998 16.0453C11.874 16.2342 11.7455 16.4253 11.5854 16.5804C11.5065 16.6591 11.423 16.7334 11.3351 16.7986C11.2517 16.8682 11.1615 16.9335 11.0713 16.9919C10.8864 17.1088 10.6879 17.1987 10.4828 17.2595C10.2776 17.3224 10.0724 17.3561 9.86039 17.354C9.18617 17.3472 8.49843 17.3561 7.82422 17.3943Z" fill="#FFB400"/>
<path d="M10.4012 15.6787C9.59615 15.726 8.93546 16.1533 8.4935 16.5715C8.27477 16.7828 8.1034 16.9874 7.98841 17.1381C7.87791 17.2932 7.82153 17.3922 7.82153 17.3922C8.49801 17.354 9.18576 17.3449 9.85547 17.3517C10.0674 17.354 10.2726 17.3179 10.4778 17.2572C10.683 17.1965 10.8814 17.1066 11.0664 16.9896C11.1588 16.9311 11.2467 16.8682 11.3302 16.7963C11.4181 16.7288 11.5015 16.6568 11.5805 16.5781C11.7406 16.423 11.8691 16.2341 11.9931 16.043C12.1329 15.8249 12.2614 15.5956 12.4103 15.3865C12.5591 15.1796 12.6967 14.9592 12.85 14.7614C12.85 14.7614 12.8342 14.7726 12.8071 14.7952C12.7778 14.8154 12.7372 14.8469 12.6854 14.8874C12.5816 14.9659 12.4238 15.0716 12.2163 15.1751C12.0044 15.2763 11.7586 15.3955 11.4542 15.4854C11.3031 15.5304 11.1385 15.5709 10.9604 15.6023C10.7867 15.6382 10.6018 15.6652 10.4012 15.6787Z" fill="#F29400"/>
<path d="M6.17203 21.0662L6.35243 20.4321L6.54861 19.8026C6.83499 18.9144 6.78763 17.9813 6.40881 17.3044C6.18782 16.9087 5.96458 16.5017 5.75713 16.0881C5.55419 15.6743 5.35351 15.2516 5.15959 14.8199L4.72213 15.7754L4.32302 16.7378C3.87655 17.8733 4.0389 19.0583 4.66125 19.6587C5.15282 20.1443 5.66243 20.6142 6.17203 21.0662Z" fill="#FFB400"/>
<path d="M5.57181 17.8575C5.79504 18.2105 5.94387 18.5861 6.04083 18.9526C6.08818 19.1348 6.12201 19.3146 6.14681 19.4878C6.17386 19.6609 6.19191 19.8295 6.20093 19.9847C6.21671 20.2972 6.20994 20.5648 6.20093 20.7581C6.18965 20.9516 6.17161 21.0639 6.17161 21.0639C5.66426 20.6098 5.1524 20.1421 4.66308 19.6587C4.04298 19.0605 3.87838 17.8756 4.32485 16.7378L4.72396 15.7754L5.16142 14.8199C5.16142 14.8199 5.03739 15.2202 5.0171 15.8024C5.00808 16.3893 5.11406 17.1516 5.57181 17.8575Z" fill="#F29400"/>
<path d="M6.5166 21.1629L6.69699 20.5355L6.89091 19.9128C7.17503 19.0291 7.83121 18.3545 8.5618 18.1724C8.99474 18.0645 9.41867 17.9655 9.84709 17.8801C10.2778 17.7969 10.704 17.725 11.1256 17.6619L10.7874 18.4017L10.4717 19.1595C10.1199 20.0521 9.36906 20.729 8.52797 20.8459C7.85375 20.9335 7.19082 21.0415 6.5166 21.1629Z" fill="#FFB400"/>
<path d="M8.83733 19.0719C8.44046 19.1639 8.09772 19.3394 7.80459 19.5552C7.65802 19.6609 7.52047 19.7778 7.3987 19.897C7.27919 20.0162 7.17096 20.1399 7.07625 20.2591C6.88232 20.4973 6.74252 20.7244 6.65458 20.8909C6.56438 21.0572 6.51929 21.1629 6.51929 21.1629C7.1935 21.0415 7.8587 20.9335 8.53292 20.8459C9.37399 20.729 10.1249 20.0544 10.4766 19.1595L10.7923 18.4017L11.1306 17.6619C11.1306 17.6619 10.9502 17.925 10.5691 18.2241C10.1903 18.53 9.61978 18.8807 8.83733 19.0719Z" fill="#F29400"/>
<path d="M5.29238 25.001C5.36454 24.5672 5.44797 24.1376 5.53367 23.706C5.72082 22.793 5.56749 21.8712 5.10297 21.2528C4.55729 20.5266 4.02964 19.771 3.5313 18.9864C3.42983 19.3124 3.32611 19.6384 3.23591 19.9645C3.1412 20.2905 3.05101 20.6165 2.96757 20.9448C2.66993 22.0983 2.95631 23.2382 3.64405 23.7666C4.18522 24.1894 4.73767 24.6031 5.29238 25.001Z" fill="#FFB400"/>
<path d="M4.34047 21.8915C4.87487 22.5345 5.10037 23.308 5.20861 23.924C5.26272 24.2321 5.28077 24.4997 5.28979 24.693C5.2988 24.8864 5.29204 25.001 5.29204 25.001C4.73734 24.6031 4.18487 24.1894 3.6437 23.7666C2.95821 23.2382 2.66958 22.0983 2.96722 20.9448C3.0484 20.6165 3.14086 20.2905 3.23557 19.9645C3.32576 19.6384 3.42723 19.3124 3.53095 18.9864C3.53095 18.9864 3.51292 19.0852 3.5039 19.2561C3.49263 19.427 3.49036 19.6699 3.52644 19.9531C3.59184 20.5199 3.80605 21.2506 4.34047 21.8915Z" fill="#F29400"/>
<path d="M5.64404 25.0618C5.71619 24.6322 5.79963 24.2051 5.88305 23.7778C6.06796 22.8672 6.64296 22.123 7.34423 21.8463C8.17178 21.5203 8.99933 21.2257 9.83139 20.9717C9.74797 21.2392 9.66229 21.5047 9.58786 21.7788C9.50895 22.0487 9.43228 22.3207 9.36463 22.5951C9.11659 23.553 8.43336 24.322 7.61482 24.5311C6.95639 24.693 6.30247 24.8706 5.64404 25.0618Z" fill="#FFB400"/>
<path d="M7.72575 22.7121C6.96585 22.9954 6.43143 23.5823 6.10673 24.0994C5.94212 24.358 5.82487 24.5986 5.75271 24.774C5.68055 24.9493 5.64673 25.0595 5.64673 25.0595C6.30291 24.8683 6.95683 24.6908 7.61751 24.5288C8.43831 24.3198 9.11929 23.5507 9.36733 22.5929C9.43497 22.3186 9.51163 22.0466 9.59056 21.7767C9.66497 21.5047 9.75066 21.2371 9.83409 20.9695C9.83409 20.9695 9.79575 21.0437 9.71684 21.1629C9.63566 21.2821 9.51163 21.4439 9.34477 21.626C9.00428 21.9903 8.48565 22.4288 7.72575 22.7121Z" fill="#F29400"/>
<path d="M4.82084 28.981C4.84338 28.5357 4.88172 28.1017 4.92682 27.6632C5.01928 26.7347 4.77575 25.8331 4.25485 25.2665C3.63701 24.6009 3.0372 23.9084 2.45093 23.1911C2.32015 23.8499 2.19839 24.5087 2.09916 25.172C1.91427 26.3367 2.32015 27.4541 3.05074 27.9152C3.6325 28.2838 4.22329 28.6436 4.82084 28.981Z" fill="#FFB400"/>
<path d="M3.5581 25.9747C4.15338 26.5615 4.45329 27.3102 4.62241 27.9129C4.70585 28.2142 4.75545 28.4795 4.78476 28.6729C4.81407 28.8639 4.82084 28.981 4.82084 28.981C4.22329 28.6436 3.6325 28.2861 3.05074 27.9152C2.32015 27.4541 1.91427 26.3367 2.09916 25.172C2.20064 24.5087 2.3224 23.8499 2.45093 23.1911C2.45093 23.1911 2.44643 23.2899 2.45544 23.4587C2.46672 23.6273 2.48701 23.8656 2.55241 24.1399C2.67868 24.6908 2.96055 25.3878 3.5581 25.9747Z" fill="#F29400"/>
<path d="M5.17871 28.9944C5.20125 28.5649 5.23733 28.131 5.28243 27.6993C5.37488 26.7751 5.87322 25.977 6.54517 25.6307C7.33214 25.2192 8.13038 24.8392 8.92862 24.4885C8.81812 25.0483 8.7144 25.6104 8.62872 26.1747C8.47312 27.1619 7.87783 27.9871 7.07959 28.2704C6.44146 28.4976 5.80783 28.7335 5.17871 28.9944Z" fill="#FFB400"/>
<path d="M7.00743 26.4581C6.27684 26.8156 5.80557 27.4497 5.53047 27.9983C5.39292 28.2703 5.30272 28.5222 5.25086 28.7044C5.19674 28.8865 5.17871 28.9966 5.17871 28.9966C5.80783 28.7358 6.44146 28.4974 7.07959 28.2726C7.87783 27.9893 8.47312 27.1641 8.62872 26.177C8.7144 25.6126 8.81812 25.0504 8.92862 24.4906C8.92862 24.4906 8.8993 24.5693 8.83166 24.6997C8.76625 24.8301 8.65577 25.0078 8.5092 25.2079C8.21156 25.6081 7.73351 26.0983 7.00743 26.4581Z" fill="#F29400"/>
<path d="M9.84739 11.1481C10.0345 10.9457 10.2352 10.7613 10.4449 10.6017C10.6637 10.4488 10.8914 10.3184 11.1169 10.215C11.3401 10.107 11.5792 10.0373 11.8114 9.99462C12.0437 9.95189 12.2692 9.93615 12.4834 9.94965C12.6142 9.95414 12.7562 9.97438 12.8893 9.99012C12.8735 10.1228 12.8532 10.2487 12.8464 10.3859C12.781 11.2538 12.4045 12.079 11.8407 12.8277C11.7934 12.8862 11.746 12.9447 11.6987 13.0054L11.5656 13.1897L11.3018 13.5608C11.2026 13.6933 11.0898 13.8126 10.9591 13.9025C10.8283 13.9902 10.684 14.051 10.5374 14.0734L10.1924 14.1274L9.85416 14.1949C9.6264 14.242 9.39641 14.2915 9.16641 14.3454C9.11003 14.1183 9.05366 13.889 9.00181 13.653L8.92514 13.2999L8.862 12.9469C8.83493 12.794 8.85072 12.6231 8.90034 12.4522C8.94994 12.2813 9.03337 12.1082 9.15964 11.9598L9.49788 11.5506L9.66699 11.346C9.72563 11.2785 9.78876 11.2133 9.84739 11.1481Z" fill="#FFB400"/>
<path d="M9.84782 11.1481C10.0417 10.9412 10.2469 10.7501 10.4634 10.5882C10.6889 10.433 10.9234 10.3004 11.1557 10.197C11.0226 10.3049 10.8918 10.4173 10.7656 10.5387L10.5762 10.7209L10.398 10.9142L10.0417 11.301C9.9087 11.4404 9.80948 11.6023 9.74409 11.7619C9.67644 11.9216 9.64037 12.079 9.64037 12.2184C9.6336 12.6478 9.67419 13.0863 9.70125 13.5045C10.1139 13.3831 10.5017 13.2617 10.9144 13.1785C11.0452 13.1492 11.1805 13.0863 11.3045 12.9963C11.4285 12.9042 11.548 12.7895 11.6562 12.6613L11.9516 12.3061L12.0982 12.1284L12.2538 11.962C12.3575 11.8496 12.4545 11.7349 12.5447 11.6158C12.4613 11.8316 12.3598 12.0385 12.238 12.2341C12.123 12.4387 11.9945 12.6411 11.8434 12.8255C11.7961 12.8839 11.7487 12.9424 11.7013 13.0031L11.5683 13.1875L11.3045 13.5585C11.2053 13.6912 11.0925 13.8102 10.9617 13.9003C10.831 13.9879 10.6866 14.0486 10.5401 14.0712L10.1951 14.1251L9.85684 14.1926C9.62909 14.2398 9.39909 14.2892 9.16909 14.3432C9.11272 14.1161 9.05635 13.8868 9.00448 13.6507L8.92782 13.2976L8.86467 12.9446C8.83762 12.7917 8.85341 12.6208 8.90301 12.45C8.95262 12.2791 9.03606 12.1059 9.16233 11.9575L9.50056 11.5483L9.66968 11.3437C9.72606 11.2785 9.78919 11.2133 9.84782 11.1481Z" fill="#F29400"/>
<path d="M24.5072 19.0605L25.558 16.83C25.5964 16.749 25.664 16.6884 25.7475 16.6568C25.8331 16.6254 25.9234 16.63 26.0045 16.6682C26.1714 16.7469 26.2436 16.9447 26.1646 17.1111L25.7677 17.9543L27.2807 18.8537L26.9402 19.4247L25.4836 18.5591L25.1138 19.3416C25.0574 19.4631 24.9357 19.5327 24.8116 19.5327C24.7643 19.5327 24.7147 19.5237 24.6696 19.5013C24.5885 19.4631 24.5276 19.3956 24.496 19.3124C24.4645 19.2314 24.4689 19.1392 24.5072 19.0605Z" fill="#00432C"/>
<path d="M19.7477 20.3197V16.5534C19.7477 16.3308 19.9303 16.151 20.1512 16.151C20.3745 16.151 20.5548 16.3331 20.5548 16.5534V20.2726H23.5989C23.811 20.2726 23.9824 20.4456 23.9824 20.6547V20.6952C23.9824 20.9065 23.8087 21.0774 23.5989 21.0774H22.7669V22.955C21.75 21.779 20.5751 21.0888 20.5548 21.0774H19.9189C19.707 21.0774 19.5356 20.9044 19.5356 20.6952V20.6547C19.5379 20.5085 19.6258 20.3827 19.7477 20.3197Z" fill="#00432C"/>
<path d="M13.1169 20.5243C14.2263 19.924 15.4846 19.6047 16.7541 19.6047C19.5028 19.6047 21.9178 21.0617 23.2595 23.2428H27.1018V20.2635C26.7478 20.2253 26.4705 19.9284 26.4705 19.5665V18.3658C26.4705 18.0037 26.7478 17.707 27.1018 17.6686V17.6619H32.8857V16.2972H32.7437C32.6985 16.2972 32.6715 16.2499 32.694 16.2117L32.8857 15.9913V15.9531H32.9196L33.2014 15.6315C33.2239 15.5933 33.2781 15.5933 33.3005 15.6315L33.5824 15.9531H33.6162V15.9913L33.808 16.2117C33.8304 16.2499 33.8035 16.2972 33.7584 16.2972H33.6162V17.6619H34.3806V15.346C34.3806 15.2111 34.4912 15.1009 34.6265 15.1009H34.6423V13.1582H35.0548V15.1009H35.0707C35.2059 15.1009 35.3165 15.2111 35.3165 15.346V17.6619H37.6412C38.9243 17.6619 39.9728 18.7075 39.9728 19.9869V20.8706V23.3777C41.4904 23.3979 42.9156 23.9937 43.991 25.0685C44.1647 25.2416 44.1647 25.5227 43.991 25.698C43.8175 25.8712 43.5356 25.8712 43.3597 25.698C42.4329 24.774 41.1995 24.2635 39.8894 24.2635C37.4541 24.2635 35.3661 26.0736 35.0279 28.4727C34.9962 28.6953 34.8068 28.855 34.5859 28.855C34.5656 28.855 34.5453 28.8527 34.5228 28.8506C34.4866 28.846 34.4528 28.8348 34.4191 28.8213H24.2111C24.1772 28.9787 24.1389 29.1361 24.0938 29.2912C24.0374 29.4868 23.8594 29.6149 23.6653 29.6149C23.6247 29.6149 23.5843 29.6105 23.5436 29.597C23.3068 29.5296 23.1693 29.2845 23.237 29.0483C23.4061 28.4524 23.4918 27.8341 23.4918 27.2114C23.4918 23.5058 20.468 20.4928 16.7518 20.4928C15.6289 20.4928 14.5194 20.7739 13.5409 21.3045C13.3244 21.4215 13.0538 21.3428 12.9365 21.1269C12.8193 20.9111 12.9005 20.6412 13.1169 20.5243Z" fill="#00432C"/>
<path d="M11.1092 26.2872H11.2896C11.355 25.7768 11.4835 25.2844 11.6774 24.828L11.5264 24.7402C11.4339 24.6885 11.4023 24.5693 11.4565 24.4771L11.9683 23.5935C12.0224 23.5013 12.1397 23.4699 12.2321 23.5238L12.39 23.6138C12.6967 23.2112 13.0552 22.8537 13.4588 22.548L13.3686 22.3906C13.3145 22.2984 13.3483 22.1814 13.4385 22.1274L14.3247 21.6171C14.4171 21.5653 14.5344 21.5969 14.5885 21.6868L14.6764 21.8375C15.1364 21.644 15.628 21.5159 16.1399 21.4507V21.2709C16.1399 21.1652 16.2256 21.0797 16.3338 21.0797H17.3576C17.4636 21.0797 17.5514 21.1652 17.5514 21.2709V21.4507C18.0633 21.5159 18.5549 21.644 19.0149 21.8375L19.1028 21.6868C19.1547 21.5946 19.2742 21.5631 19.3667 21.6171L20.2529 22.1274C20.3454 22.1814 20.3769 22.2984 20.3228 22.3906L20.2326 22.548C20.6362 22.8537 20.9947 23.2112 21.3015 23.6138L21.4592 23.5238C21.5516 23.4699 21.6689 23.5036 21.723 23.5935L22.2349 24.4771C22.2891 24.5693 22.2552 24.6862 22.1651 24.7402L22.014 24.828C22.2079 25.2866 22.3363 25.7768 22.4017 26.2872H22.5822C22.6882 26.2872 22.7761 26.3727 22.7761 26.4784V27.4991C22.7761 27.6048 22.6904 27.6926 22.5822 27.6926H22.4017C22.3363 28.203 22.2079 28.6932 22.014 29.1518L22.1651 29.2395C22.2574 29.2912 22.2891 29.4104 22.2349 29.5026L21.723 30.3862C21.6689 30.4784 21.5516 30.5099 21.4592 30.456L21.3015 30.366C20.9947 30.7685 20.6362 31.126 20.2326 31.4318L20.3228 31.5892C20.3769 31.6814 20.3431 31.7983 20.2529 31.8523L19.3667 32.3626C19.2742 32.4166 19.157 32.3829 19.1028 32.2929L19.0149 32.1423C18.5549 32.3357 18.0633 32.4639 17.5514 32.5291V32.7089C17.5514 32.8146 17.4657 32.9023 17.3576 32.9023H16.3338C16.2279 32.9023 16.1399 32.8169 16.1399 32.7089V32.5291C15.628 32.4639 15.1364 32.3357 14.6764 32.1423L14.5885 32.2929C14.5367 32.3852 14.4171 32.4166 14.3247 32.3626L13.4385 31.8523C13.3461 31.7983 13.3145 31.6814 13.3686 31.5892L13.4588 31.4318C13.0552 31.126 12.6967 30.7685 12.39 30.366L12.2321 30.456C12.1397 30.5099 12.0224 30.4761 11.9683 30.3862L11.4565 29.5026C11.4046 29.4104 11.4362 29.2935 11.5264 29.2395L11.6774 29.1518C11.4835 28.6932 11.355 28.203 11.2896 27.6926H11.1092C11.0032 27.6926 10.9153 27.6071 10.9153 27.4991V26.4784C10.9153 26.3727 11.0032 26.2872 11.1092 26.2872Z" fill="#00432C"/>
<path d="M14.5366 26.9888C14.5366 28.2591 15.5693 29.2867 16.8411 29.2867C18.1151 29.2867 19.1457 28.2568 19.1457 26.9888C19.1457 25.7183 18.1129 24.6908 16.8411 24.6908C15.5693 24.6908 14.5366 25.7183 14.5366 26.9888Z" fill="#FBFFD5"/>
<path d="M16.0002 26.9888C16.0002 27.4542 16.3791 27.8297 16.8436 27.8297C17.3102 27.8297 17.6869 27.452 17.6869 26.9888C17.6869 26.5233 17.3081 26.1478 16.8436 26.1478C16.3791 26.1478 16.0002 26.5233 16.0002 26.9888Z" fill="#00432C"/>
<path d="M35.913 28.6459H36.0888C36.1271 28.4166 36.1881 28.1962 36.267 27.9825L36.1136 27.8949C36.0302 27.8477 36.0031 27.7398 36.0505 27.6588L36.5127 26.8629C36.5601 26.7797 36.6683 26.7527 36.7495 26.7999L36.9006 26.8854C37.0472 26.7077 37.2117 26.5459 37.3877 26.3997L37.302 26.249C37.2546 26.1658 37.2817 26.0601 37.3651 26.0129L38.1633 25.552C38.2467 25.5048 38.3527 25.5318 38.4001 25.6149L38.4881 25.7679C38.7023 25.6892 38.9232 25.6284 39.1533 25.5902V25.4148C39.1533 25.3203 39.2322 25.2416 39.3268 25.2416H40.2491C40.3438 25.2416 40.4228 25.3203 40.4228 25.4148V25.5902C40.6528 25.6284 40.8737 25.6892 41.0879 25.7679L41.1759 25.6149C41.2233 25.5318 41.3315 25.5048 41.4127 25.552L42.2109 26.0129C42.2943 26.0601 42.3214 26.168 42.274 26.249L42.1883 26.3997C42.3665 26.5459 42.5288 26.7099 42.6754 26.8854L42.8265 26.7999C42.9099 26.7527 43.0159 26.7819 43.0633 26.8629L43.5255 27.6588C43.5729 27.742 43.5435 27.8477 43.4624 27.8949L43.309 27.9825C43.3879 28.1962 43.4489 28.4166 43.4872 28.6459H43.6631C43.7578 28.6459 43.8367 28.7246 43.8367 28.819V29.7386C43.8367 29.8331 43.7578 29.9118 43.6631 29.9118H43.4872C43.4489 30.1412 43.3879 30.3615 43.309 30.5751L43.4624 30.6628C43.5458 30.7101 43.5729 30.8179 43.5255 30.8989L43.0633 31.6949C43.0159 31.7781 42.9076 31.8051 42.8265 31.7578L42.6754 31.6724C42.5288 31.85 42.3642 32.0119 42.1883 32.1581L42.274 32.3088C42.3214 32.3919 42.2943 32.4976 42.2109 32.5449L41.4127 33.0058C41.3293 33.053 41.2233 33.026 41.1759 32.9428L41.0879 32.7899C40.8737 32.8686 40.6528 32.9293 40.4228 32.9676V33.1429C40.4228 33.2373 40.3438 33.316 40.2491 33.316H39.3268C39.2322 33.316 39.1533 33.2373 39.1533 33.1429V32.9676C38.9232 32.9293 38.7023 32.8686 38.4881 32.7899L38.4001 32.9428C38.3527 33.026 38.2446 33.053 38.1633 33.0058L37.3651 32.5449C37.2817 32.4976 37.2546 32.3896 37.302 32.3088L37.3877 32.1581C37.2095 32.0119 37.0472 31.8477 36.9006 31.6724L36.7495 31.7578C36.6661 31.8051 36.5601 31.7781 36.5127 31.6949L36.0505 30.8989C36.0031 30.8157 36.0325 30.7101 36.1136 30.6628L36.267 30.5751C36.1881 30.3615 36.1271 30.1412 36.0888 29.9118H35.913C35.8182 29.9118 35.7393 29.8331 35.7393 29.7386V28.819C35.7393 28.7223 35.8182 28.6459 35.913 28.6459Z" fill="#00432C"/>
<path d="M38.2422 29.2777C38.2422 30.13 38.9344 30.8202 39.789 30.8202C40.6436 30.8202 41.3359 30.13 41.3359 29.2777C41.3359 28.4256 40.6436 27.7352 39.789 27.7352C38.9344 27.7375 38.2422 28.4278 38.2422 29.2777Z" fill="#FBFFD5"/>
<path d="M39.3318 29.2777C39.3318 29.5296 39.5369 29.7342 39.7895 29.7342C40.042 29.7342 40.2473 29.5296 40.2473 29.2777C40.2473 29.0259 40.042 28.8213 39.7895 28.8213C39.5369 28.8213 39.3318 29.0259 39.3318 29.2777Z" fill="#00432C"/>
<path d="M36.0419 22.9257C36.2042 22.9257 36.335 22.7953 36.335 22.6334V20.2994C36.335 20.1376 36.2042 20.0071 36.0419 20.0071C35.8796 20.0071 35.7488 20.1376 35.7488 20.2994V22.6334C35.7488 22.793 35.8796 22.9257 36.0419 22.9257Z" fill="#FBFFD5"/>
<path d="M34.5241 22.9257C34.6864 22.9257 34.8172 22.7953 34.8172 22.6335V20.2973C34.8172 20.1354 34.6864 20.005 34.5241 20.005C34.3617 20.005 34.231 20.1354 34.231 20.2973V22.6312C34.231 22.793 34.3617 22.9257 34.5241 22.9257Z" fill="#FBFFD5"/>
<path d="M33.0062 22.9257C33.1686 22.9257 33.2994 22.7953 33.2994 22.6335V20.2973C33.2994 20.1354 33.1686 20.005 33.0062 20.005C32.8439 20.005 32.7131 20.1354 32.7131 20.2973V22.6312C32.7131 22.793 32.8462 22.9257 33.0062 22.9257Z" fill="#FBFFD5"/>
<path d="M31.4912 22.9257C31.6536 22.9257 31.7843 22.7953 31.7843 22.6335V20.2973C31.7843 20.1354 31.6536 20.005 31.4912 20.005C31.3288 20.005 31.198 20.1354 31.198 20.2973V22.6312C31.198 22.793 31.3288 22.9257 31.4912 22.9257Z" fill="#FBFFD5"/>
<path d="M24.4395 34.6156C15.9655 29.6757 5.74406 28.9337 1.46875 28.855C2.5218 42.0605 13.5956 52.453 27.1093 52.453C38.8776 52.453 48.7948 44.572 51.8569 33.8152C46.8217 32.7067 24.4395 34.6156 24.4395 34.6156Z" fill="#007A0B"/>
<path d="M51.0027 36.128C51.0094 36.1101 51.0184 36.0899 51.025 36.072C49.0974 35.9284 29.3748 34.8535 15.4038 49.5824C18.3132 51.0791 21.5409 52.0351 24.9636 52.3201C27.0145 49.3042 34.4428 40.1109 51.0027 36.128Z" fill="#5AB818"/>
<path d="M46.563 43.4815C48.0559 41.7359 49.3197 39.7872 50.3032 37.68C44.8143 39.9055 37.1874 44.1847 31.2891 52.08C36.4264 51.2541 41.0498 48.8857 44.6741 45.4637C45.2593 44.8097 45.8866 44.1468 46.563 43.4815Z" fill="#5AB818"/>
<path d="M51.026 33.9106C41.1615 31.7793 31.9506 32.2357 24.065 33.78C21.9698 32.5104 13.7236 28.1125 1.68579 29.2159C1.69922 29.3599 1.7104 29.5017 1.72608 29.6457C5.3097 30.1154 13.0499 31.4979 18.4175 35.1159C17.3364 35.4172 16.2889 35.7318 15.2772 36.0597C12.7119 34.7969 8.19718 33.0333 2.20732 32.4993C2.36625 33.2039 2.55204 33.8996 2.76915 34.5797C5.37237 35.3264 8.1166 36.3589 10.5049 37.7791C9.5178 38.1711 8.57994 38.5656 7.69578 38.9577C6.6348 38.519 5.39251 38.067 3.98458 37.6572C5.56934 41.0093 7.87038 43.9604 10.6974 46.32C26.1331 32.7032 51.026 33.9106 51.026 33.9106Z" fill="#5AB818"/>
<path d="M65.918 46H63.4492V38H66.0273C66.8034 38 67.4674 38.1602 68.0195 38.4805C68.5716 38.7982 68.9948 39.2552 69.2891 39.8516C69.5833 40.4453 69.7305 41.1562 69.7305 41.9844C69.7305 42.8177 69.582 43.5352 69.2852 44.1367C68.9883 44.7357 68.556 45.1966 67.9883 45.5195C67.4206 45.8398 66.7305 46 65.918 46ZM64.418 45.1406H65.8555C66.5169 45.1406 67.0651 45.013 67.5 44.7578C67.9349 44.5026 68.2591 44.1393 68.4727 43.668C68.6862 43.1966 68.793 42.6354 68.793 41.9844C68.793 41.3385 68.6875 40.7826 68.4766 40.3164C68.2656 39.8477 67.9505 39.4883 67.5313 39.2383C67.112 38.9857 66.5898 38.8594 65.9648 38.8594H64.418V45.1406ZM71.2305 46V40H72.1523V46H71.2305ZM71.6992 39C71.5195 39 71.3646 38.9388 71.2344 38.8164C71.1068 38.694 71.043 38.5469 71.043 38.375C71.043 38.2031 71.1068 38.056 71.2344 37.9336C71.3646 37.8112 71.5195 37.75 71.6992 37.75C71.8789 37.75 72.0326 37.8112 72.1602 37.9336C72.2904 38.056 72.3555 38.2031 72.3555 38.375C72.3555 38.5469 72.2904 38.694 72.1602 38.8164C72.0326 38.9388 71.8789 39 71.6992 39ZM78.0908 41.3437L77.2627 41.5781C77.2106 41.4401 77.1338 41.306 77.0322 41.1758C76.9333 41.043 76.7979 40.9336 76.626 40.8477C76.4541 40.7617 76.234 40.7187 75.9658 40.7187C75.5986 40.7187 75.2926 40.8034 75.0479 40.9727C74.8057 41.1393 74.6846 41.3516 74.6846 41.6094C74.6846 41.8385 74.7679 42.0195 74.9346 42.1523C75.1012 42.2852 75.3617 42.3958 75.7158 42.4844L76.6064 42.7031C77.1429 42.8333 77.5426 43.0326 77.8057 43.3008C78.0687 43.5664 78.2002 43.9089 78.2002 44.3281C78.2002 44.6719 78.1012 44.9792 77.9033 45.25C77.708 45.5208 77.4346 45.7344 77.083 45.8906C76.7314 46.0469 76.3226 46.125 75.8564 46.125C75.2445 46.125 74.738 45.9922 74.3369 45.7266C73.9359 45.4609 73.682 45.0729 73.5752 44.5625L74.4502 44.3437C74.5335 44.6667 74.6911 44.9089 74.9229 45.0703C75.1572 45.2318 75.4632 45.3125 75.8408 45.3125C76.2705 45.3125 76.6117 45.2214 76.8643 45.0391C77.1195 44.8542 77.2471 44.6328 77.2471 44.375C77.2471 44.1667 77.1742 43.9922 77.0283 43.8516C76.8825 43.7083 76.6585 43.6016 76.3564 43.5312L75.3564 43.2969C74.807 43.1667 74.4033 42.9648 74.1455 42.6914C73.8903 42.4154 73.7627 42.0703 73.7627 41.6562C73.7627 41.3177 73.8577 41.0182 74.0479 40.7578C74.2406 40.4974 74.5023 40.293 74.833 40.1445C75.1663 39.9961 75.5439 39.9219 75.9658 39.9219C76.5596 39.9219 77.0257 40.0521 77.3643 40.3125C77.7054 40.5729 77.9476 40.9167 78.0908 41.3437ZM82.0254 46.125C81.4629 46.125 80.9785 45.9922 80.5723 45.7266C80.166 45.4609 79.8535 45.0951 79.6348 44.6289C79.416 44.1628 79.3066 43.6302 79.3066 43.0312C79.3066 42.4219 79.4186 41.8841 79.6426 41.418C79.8691 40.9492 80.1842 40.5833 80.5879 40.3203C80.9941 40.0547 81.4681 39.9219 82.0098 39.9219C82.4316 39.9219 82.8118 40 83.1504 40.1562C83.4889 40.3125 83.7663 40.5312 83.9824 40.8125C84.1986 41.0937 84.3327 41.4219 84.3848 41.7969H83.4629C83.3926 41.5234 83.2363 41.2812 82.9941 41.0703C82.7546 40.8568 82.4316 40.75 82.0254 40.75C81.666 40.75 81.3509 40.8437 81.0801 41.0312C80.8118 41.2161 80.6022 41.4779 80.4512 41.8164C80.3027 42.1523 80.2285 42.5469 80.2285 43C80.2285 43.4635 80.3014 43.8672 80.4473 44.2109C80.5957 44.5547 80.804 44.8216 81.0723 45.0117C81.3431 45.2018 81.6608 45.2969 82.0254 45.2969C82.265 45.2969 82.4824 45.2552 82.6777 45.1719C82.873 45.0885 83.0384 44.9688 83.1738 44.8125C83.3092 44.6562 83.4056 44.4687 83.4629 44.25H84.3848C84.3327 44.6042 84.2038 44.9232 83.998 45.207C83.7949 45.4883 83.5254 45.7122 83.1895 45.8789C82.8561 46.043 82.4681 46.125 82.0254 46.125ZM88.1699 46.125C87.6283 46.125 87.153 45.9961 86.7441 45.7383C86.3379 45.4805 86.0202 45.1198 85.791 44.6562C85.5645 44.1927 85.4512 43.651 85.4512 43.0312C85.4512 42.4062 85.5645 41.8607 85.791 41.3945C86.0202 40.9284 86.3379 40.5664 86.7441 40.3086C87.153 40.0508 87.6283 39.9219 88.1699 39.9219C88.7116 39.9219 89.1855 40.0508 89.5918 40.3086C90.0007 40.5664 90.3184 40.9284 90.5449 41.3945C90.7741 41.8607 90.8887 42.4062 90.8887 43.0312C90.8887 43.651 90.7741 44.1927 90.5449 44.6562C90.3184 45.1198 90.0007 45.4805 89.5918 45.7383C89.1855 45.9961 88.7116 46.125 88.1699 46.125ZM88.1699 45.2969C88.5814 45.2969 88.9199 45.1914 89.1855 44.9805C89.4512 44.7695 89.6478 44.4922 89.7754 44.1484C89.903 43.8047 89.9668 43.4323 89.9668 43.0312C89.9668 42.6302 89.903 42.2565 89.7754 41.9102C89.6478 41.5638 89.4512 41.2839 89.1855 41.0703C88.9199 40.8568 88.5814 40.75 88.1699 40.75C87.7585 40.75 87.4199 40.8568 87.1543 41.0703C86.8887 41.2839 86.6921 41.5638 86.5645 41.9102C86.4368 42.2565 86.373 42.6302 86.373 43.0312C86.373 43.4323 86.4368 43.8047 86.5645 44.1484C86.6921 44.4922 86.8887 44.7695 87.1543 44.9805C87.4199 45.1914 87.7585 45.2969 88.1699 45.2969ZM96.9873 40L94.7686 46H93.8311L91.6123 40H92.6123L94.2686 44.7812H94.3311L95.9873 40H96.9873ZM100.505 46.125C99.9268 46.125 99.4281 45.9974 99.0088 45.7422C98.5921 45.4844 98.2705 45.125 98.0439 44.6641C97.82 44.2005 97.708 43.6615 97.708 43.0469C97.708 42.4323 97.82 41.8906 98.0439 41.4219C98.2705 40.9505 98.5856 40.5833 98.9893 40.3203C99.3955 40.0547 99.8695 39.9219 100.411 39.9219C100.724 39.9219 101.032 39.974 101.337 40.0781C101.642 40.1823 101.919 40.3516 102.169 40.5859C102.419 40.8177 102.618 41.125 102.767 41.5078C102.915 41.8906 102.989 42.362 102.989 42.9219V43.3125H98.3643V42.5156H102.052C102.052 42.1771 101.984 41.875 101.849 41.6094C101.716 41.3437 101.526 41.1341 101.278 40.9805C101.034 40.8268 100.744 40.75 100.411 40.75C100.044 40.75 99.7262 40.8411 99.458 41.0234C99.1924 41.2031 98.988 41.4375 98.8447 41.7266C98.7015 42.0156 98.6299 42.3255 98.6299 42.6562V43.1875C98.6299 43.6406 98.708 44.0247 98.8643 44.3398C99.0231 44.6523 99.2432 44.8906 99.5244 45.0547C99.8057 45.2161 100.132 45.2969 100.505 45.2969C100.747 45.2969 100.966 45.263 101.161 45.1953C101.359 45.125 101.53 45.0208 101.673 44.8828C101.816 44.7422 101.927 44.5677 102.005 44.3594L102.896 44.6094C102.802 44.9115 102.644 45.1771 102.423 45.4062C102.201 45.6328 101.928 45.8099 101.603 45.9375C101.277 46.0625 100.911 46.125 100.505 46.125ZM104.392 46V40H105.282V40.9062H105.345C105.454 40.6094 105.652 40.3685 105.938 40.1836C106.225 39.9987 106.548 39.9062 106.907 39.9062C106.975 39.9062 107.06 39.9076 107.161 39.9102C107.263 39.9128 107.34 39.9167 107.392 39.9219V40.8594C107.36 40.8516 107.289 40.8398 107.177 40.8242C107.067 40.806 106.951 40.7969 106.829 40.7969C106.537 40.7969 106.277 40.8581 106.048 40.9805C105.821 41.1003 105.642 41.2669 105.509 41.4805C105.379 41.6914 105.313 41.9323 105.313 42.2031V46H104.392ZM112.922 35.4219V48.5781H112.141V35.4219H112.922ZM118.396 46V38H121.192C121.75 38 122.209 38.0964 122.571 38.2891C122.933 38.4792 123.203 38.7357 123.38 39.0586C123.557 39.3789 123.646 39.7344 123.646 40.125C123.646 40.4687 123.584 40.7526 123.462 40.9766C123.342 41.2005 123.183 41.3776 122.985 41.5078C122.79 41.638 122.578 41.7344 122.349 41.7969V41.875C122.593 41.8906 122.84 41.9766 123.087 42.1328C123.334 42.2891 123.541 42.513 123.708 42.8047C123.875 43.0964 123.958 43.4531 123.958 43.875C123.958 44.276 123.867 44.6367 123.685 44.957C123.502 45.2773 123.215 45.5312 122.821 45.7187C122.428 45.9062 121.916 46 121.286 46H118.396ZM119.364 45.1406H121.286C121.919 45.1406 122.368 45.0182 122.634 44.7734C122.902 44.526 123.036 44.2266 123.036 43.875C123.036 43.6042 122.967 43.3542 122.829 43.125C122.691 42.8932 122.494 42.7083 122.239 42.5703C121.984 42.4297 121.682 42.3594 121.333 42.3594H119.364V45.1406ZM119.364 41.5156H121.161C121.453 41.5156 121.716 41.4583 121.95 41.3437C122.187 41.2292 122.375 41.0677 122.513 40.8594C122.653 40.651 122.724 40.4062 122.724 40.125C122.724 39.7734 122.601 39.4753 122.356 39.2305C122.112 38.9831 121.724 38.8594 121.192 38.8594H119.364V41.5156ZM129.206 43.5469V40H130.128V46H129.206V44.9844H129.144C129.003 45.2891 128.784 45.5482 128.487 45.7617C128.19 45.9727 127.815 46.0781 127.362 46.0781C126.987 46.0781 126.654 45.9961 126.362 45.832C126.071 45.6654 125.841 45.4154 125.675 45.082C125.508 44.7461 125.425 44.3229 125.425 43.8125V40H126.347V43.75C126.347 44.1875 126.469 44.5365 126.714 44.7969C126.961 45.0573 127.276 45.1875 127.659 45.1875C127.888 45.1875 128.121 45.1289 128.358 45.0117C128.598 44.8945 128.799 44.7148 128.96 44.4727C129.124 44.2305 129.206 43.9219 129.206 43.5469ZM132.41 48.25C132.254 48.25 132.115 48.237 131.992 48.2109C131.87 48.1875 131.785 48.1641 131.738 48.1406L131.973 47.3281C132.197 47.3854 132.395 47.4063 132.566 47.3906C132.738 47.375 132.891 47.2982 133.023 47.1602C133.159 47.0247 133.283 46.8047 133.395 46.5L133.566 46.0313L131.348 40H132.348L134.004 44.7812H134.066L135.723 40H136.723L134.176 46.875C134.061 47.1849 133.919 47.4414 133.75 47.6445C133.581 47.8503 133.384 48.0026 133.16 48.1016C132.939 48.2005 132.689 48.25 132.41 48.25ZM142.377 35.4219V48.5781H141.596V35.4219H142.377ZM152.226 40C152.179 39.6042 151.989 39.2969 151.655 39.0781C151.322 38.8594 150.913 38.75 150.429 38.75C150.075 38.75 149.765 38.8073 149.499 38.9219C149.236 39.0365 149.03 39.194 148.882 39.3945C148.736 39.5951 148.663 39.8229 148.663 40.0781C148.663 40.2917 148.714 40.4753 148.815 40.6289C148.92 40.7799 149.052 40.9062 149.214 41.0078C149.375 41.1068 149.545 41.1888 149.722 41.2539C149.899 41.3164 150.062 41.3672 150.21 41.4062L151.022 41.625C151.231 41.6797 151.463 41.7552 151.718 41.8516C151.976 41.9479 152.222 42.0794 152.456 42.2461C152.693 42.4102 152.888 42.6211 153.042 42.8789C153.196 43.1367 153.272 43.4531 153.272 43.8281C153.272 44.2604 153.159 44.651 152.933 45C152.709 45.349 152.381 45.6263 151.948 45.832C151.519 46.0378 150.996 46.1406 150.382 46.1406C149.809 46.1406 149.313 46.0482 148.894 45.8633C148.477 45.6784 148.149 45.4206 147.909 45.0898C147.672 44.7591 147.538 44.375 147.507 43.9375H148.507C148.533 44.2396 148.634 44.4896 148.812 44.6875C148.991 44.8828 149.218 45.0286 149.491 45.125C149.767 45.2187 150.064 45.2656 150.382 45.2656C150.752 45.2656 151.084 45.2057 151.378 45.0859C151.672 44.9635 151.905 44.7943 152.077 44.5781C152.249 44.3594 152.335 44.1042 152.335 43.8125C152.335 43.5469 152.261 43.3307 152.112 43.1641C151.964 42.9974 151.769 42.862 151.526 42.7578C151.284 42.6536 151.022 42.5625 150.741 42.4844L149.757 42.2031C149.132 42.0234 148.637 41.7669 148.272 41.4336C147.908 41.1003 147.726 40.6641 147.726 40.125C147.726 39.6771 147.847 39.2865 148.089 38.9531C148.334 38.6172 148.662 38.3568 149.073 38.1719C149.487 37.9844 149.95 37.8906 150.46 37.8906C150.976 37.8906 151.434 37.9831 151.835 38.168C152.236 38.3503 152.554 38.6003 152.788 38.918C153.025 39.2357 153.15 39.5964 153.163 40H152.226ZM157.256 46.125C156.678 46.125 156.179 45.9974 155.76 45.7422C155.343 45.4844 155.021 45.125 154.795 44.6641C154.571 44.2005 154.459 43.6615 154.459 43.0469C154.459 42.4323 154.571 41.8906 154.795 41.4219C155.021 40.9505 155.337 40.5833 155.74 40.3203C156.146 40.0547 156.62 39.9219 157.162 39.9219C157.475 39.9219 157.783 39.974 158.088 40.0781C158.393 40.1823 158.67 40.3516 158.92 40.5859C159.17 40.8177 159.369 41.125 159.518 41.5078C159.666 41.8906 159.74 42.362 159.74 42.9219V43.3125H155.115V42.5156H158.803C158.803 42.1771 158.735 41.875 158.6 41.6094C158.467 41.3437 158.277 41.1341 158.029 40.9805C157.785 40.8268 157.495 40.75 157.162 40.75C156.795 40.75 156.477 40.8411 156.209 41.0234C155.943 41.2031 155.739 41.4375 155.596 41.7266C155.452 42.0156 155.381 42.3255 155.381 42.6562V43.1875C155.381 43.6406 155.459 44.0247 155.615 44.3398C155.774 44.6523 155.994 44.8906 156.275 45.0547C156.557 45.2161 156.883 45.2969 157.256 45.2969C157.498 45.2969 157.717 45.263 157.912 45.1953C158.11 45.125 158.281 45.0208 158.424 44.8828C158.567 44.7422 158.678 44.5677 158.756 44.3594L159.646 44.6094C159.553 44.9115 159.395 45.1771 159.174 45.4062C158.952 45.6328 158.679 45.8099 158.354 45.9375C158.028 46.0625 157.662 46.125 157.256 46.125ZM162.064 38V46H161.143V38H162.064ZM164.675 38V46H163.753V38H164.675Z" fill="#592800"/>
</svg>
